<?xml version="1.0" encoding="UTF-8" standalone="no"?>
<svg width="900" height="480" viewBox="0 0 900 480" xmlns="http://www.w3.org/2000/svg" font-family="sans-serif">
  <style>
    .bluebox { fill:#e8f4ff; stroke:#0b4f8a; stroke-width:1.5; }
    .orangebox { fill:#fff3e6; stroke:#d2691e; stroke-width:1.5; }
    .arrow { stroke:#555; stroke-width:2; marker-end:url(#mArrow); }
    .label { font-size:14px; font-weight:bold; fill:#000; }
  </style>
  <defs>
    <marker id="mArrow" markerWidth="10" markerHeight="7" refX="10" refY="3.5" orient="auto">
      <polygon points="0 0, 10 3.5, 0 7" fill="#555"/>
    </marker>
  </defs>

  <!-- Left column -->
  <rect x="40" y="60" width="180" height="60" class="bluebox"/>
  <text x="130" y="95" text-anchor="middle" class="label">GitHub Repo</text>

  <rect x="40" y="160" width="180" height="60" class="bluebox"/>
  <text x="130" y="195" text-anchor="middle" class="label">GitHub Actions</text>

  <rect x="40" y="260" width="180" height="60" class="bluebox"/>
  <text x="130" y="295" text-anchor="middle" class="label">Secrets</text>

  <!-- Middle column -->
  <rect x="350" y="60" width="220" height="60" class="bluebox"/>
  <text x="460" y="95" text-anchor="middle" class="label">tweepybot_scraping_tuge.py</text>

  <rect x="350" y="160" width="220" height="60" class="bluebox"/>
  <text x="460" y="195" text-anchor="middle" class="label">tweepybot.py</text>

  <!-- Right column -->
  <rect x="700" y="60" width="160" height="60" class="orangebox"/>
  <text x="780" y="95" text-anchor="middle" class="label">Target Web Page</text>

  <rect x="700" y="160" width="160" height="60" class="orangebox"/>
  <text x="780" y="195" text-anchor="middle" class="label">Google Sheets</text>

  <rect x="700" y="260" width="160" height="60" class="orangebox"/>
  <text x="780" y="295" text-anchor="middle" class="label">Twitter (X)</text>

  <!-- Arrows from Actions -->
  <line x1="220" y1="190" x2="350" y2="190" class="arrow"/>
  <line x1="220" y1="190" x2="350" y2="90" class="arrow"/>

  <!-- Arrows from Repo to scripts -->
  <line x1="220" y1="90" x2="350" y2="90" class="arrow"/>

  <!-- Secrets to both scripts -->
  <line x1="220" y1="290" x2="350" y2="190" class="arrow"/>
  <line x1="220" y1="290" x2="350" y2="90" class="arrow"/>

  <!-- Scraper to Web page -->
  <line x1="570" y1="90" x2="700" y2="90" class="arrow"/>

  <!-- Scraper to Sheets -->
  <line x1="460" y1="120" x2="460" y2="160" class="arrow"/>
  <line x1="460" y1="190" x2="700" y2="190" class="arrow"/>

  <!-- Poster to Sheets & Twitter -->
  <line x1="570" y1="190" x2="700" y2="190" class="arrow"/>
  <line x1="570" y1="190" x2="700" y2="290" class="arrow"/>

  <!-- Sheets ack back to poster -->
  <line x1="700" y1="220" x2="570" y2="220" class="arrow"/>

</svg>
