<?xml version="1.0" encoding="UTF-8" standalone="no"?>
<svg width="800" height="420" viewBox="0 0 800 420" xmlns="http://www.w3.org/2000/svg" font-family="sans-serif">
  <style>
    .box { fill:#f0f8ff; stroke:#036; stroke-width:1.5; }
    .cloud { fill:#fff5e6; stroke:#d2691e; stroke-width:1.5; }
    .arrow { stroke:#555; stroke-width:2; marker-end:url(#arrowhead); }
    .label { font-size:13px; font-weight:bold; fill:#000; }
  </style>
  <defs>
    <marker id="arrowhead" markerWidth="10" markerHeight="7"
        refX="10" refY="3.5" orient="auto">
      <polygon points="0 0, 10 3.5, 0 7" fill="#555"/>
    </marker>
  </defs>

  <!-- GitHub -->
  <rect x="30" y="40" width="160" height="60" class="box"/>
  <text x="110" y="70" text-anchor="middle" class="label">GitHub Repo</text>

  <rect x="30" y="120" width="160" height="60" class="box"/>
  <text x="110" y="150" text-anchor="middle" class="label">GitHub Actions</text>

  <rect x="30" y="200" width="160" height="60" class="box"/>
  <text x="110" y="230" text-anchor="middle" class="label">Secrets</text>

  <!-- Bot scripts -->
  <rect x="300" y="40" width="180" height="60" class="box"/>
  <text x="390" y="70" text-anchor="middle" class="label">tweepybot_scraping_tuge.py</text>

  <rect x="300" y="120" width="180" height="60" class="box"/>
  <text x="390" y="150" text-anchor="middle" class="label">tweepybot.py</text>

  <!-- External services -->
  <rect x="600" y="40" width="160" height="60" class="cloud"/>
  <text x="680" y="70" text-anchor="middle" class="label">Target Web Page</text>

  <rect x="600" y="120" width="160" height="60" class="cloud"/>
  <text x="680" y="150" text-anchor="middle" class="label">Google Sheets</text>

  <rect x="600" y="200" width="160" height="60" class="cloud"/>
  <text x="680" y="230" text-anchor="middle" class="label">Twitter (X)</text>

  <!-- Arrows -->
  <!-- GA triggers scripts -->
  <line x1="190" y1="150" x2="300" y2="150" class="arrow"/>
  <line x1="190" y1="150" x2="300" y2="70" class="arrow"/>

  <!-- Secrets to scripts -->
  <line x1="190" y1="230" x2="300" y2="150" class="arrow"/>
  <line x1="190" y1="230" x2="300" y2="230" class="arrow"/>

  <!-- Scraper to web page -->
  <line x1="480" y1="70" x2="600" y2="70" class="arrow"/>

  <!-- Scraper to Google Sheets -->
  <line x1="390" y1="100" x2="390" y2="120" class="arrow"/>
  <line x1="390" y1="150" x2="600" y2="150" class="arrow"/>

  <!-- Poster reads from Sheets -->
  <line x1="480" y1="150" x2="600" y2="150" class="arrow"/>

  <!-- Poster to Twitter -->
  <line x1="480" y1="150" x2="600" y2="230" class="arrow"/>

  <!-- Sheets feedback to poster -->
  <line x1="600" y1="180" x2="480" y2="180" class="arrow"/>

  <!-- Legends -->
  <text x="400" y="380" text-anchor="middle" font-size="12">Data flow / Trigger relationships</text>
</svg>
